# xmcd
#
# Track frame offsets:
#	150
#	18216
#	34245
#	52699
#	69802
#	87986
#	103145
#	123882
#	140998
#	157123
#	175426
#	196978
#
# Disc length: 2886 seconds
#
# Revision: 1
# Processed by: cddbd v1.5.2PL0 Copyright (c) Steve Scherf et al.
# Submitted via: audiograbber 1.83.01
#
DISCID=a00b440c
DTITLE=Carrie Underwood - Greatest Hits: Decade #1 CD1
DYEAR=2014
DGENRE=Country
TTITLE0=Something In The Water
TTITLE1=Little Toy Guns
TTITLE2=Inside Your Heaven
TTITLE3=Jesus, Take The Wheel
TTITLE4=Don't Forget To Remember Me
TTITLE5=Before He Cheats
TTITLE6=Wasted
TTITLE7=So Small
TTITLE8=All-American Girl
TTITLE9=Last Name
TTITLE10=Just A Dream
TTITLE11=I Told You So (Feat. Randy Travis)
EXTD=
EXTT0=
EXTT1=
EXTT2=
EXTT3=
EXTT4=
EXTT5=
EXTT6=
EXTT7=
EXTT8=
EXTT9=
EXTT10=
EXTT11=
PLAYORDER=
